<svg width="142" height="20" viewBox="0 0 142 20" fill="none" xmlns="http://www.w3.org/2000/svg">
<g clip-path="url(#clip0)">
<path d="M2.91488 0V3.91886C2.91488 5.04314 2.81918 5.94728 2.62778 6.63129C3.8703 5.3136 5.30381 4.65476 6.92833 4.65476C8.4097 4.65476 9.49285 5.12963 10.1778 6.07937C10.8627 7.02911 11.2048 8.57991 11.204 10.7318C11.204 12.7586 10.8018 14.2945 9.99744 15.3393C9.19309 16.3842 7.76393 16.9074 5.70994 16.909C4.70271 16.9017 3.69713 16.8265 2.70015 16.6838C1.60079 16.5328 0.700742 16.315 0 16.0304V0H2.91488ZM2.91488 8.38257V14.3192C3.80694 14.5384 4.7251 14.6344 5.64351 14.6046C6.5831 14.5889 7.2439 14.3039 7.62591 13.7496C8.00792 13.1954 8.20565 12.1902 8.21909 10.7341C8.20327 9.30951 8.04509 8.34365 7.74455 7.83655C7.444 7.32944 6.80574 7.07589 5.82977 7.07589C5.36546 7.07286 4.90698 7.17872 4.49155 7.38487C3.94075 7.67627 3.4136 8.00984 2.91488 8.38257Z" fill="black"/>
<path d="M19.2066 4.65625C21.3088 4.65625 22.7941 5.12326 23.6626 6.05728C24.531 6.99129 24.966 8.57433 24.9676 10.8064C24.9676 13.0384 24.5326 14.6175 23.6626 15.5437C22.7926 16.4698 21.3072 16.9333 19.2066 16.9341C17.0885 16.9341 15.5914 16.471 14.715 15.5449C13.8387 14.6187 13.4021 13.0392 13.4053 10.8064C13.4053 8.57433 13.8403 6.99129 14.7103 6.05728C15.5803 5.12326 17.079 4.65625 19.2066 4.65625ZM19.2066 6.95945C18.123 6.95945 17.3903 7.2248 17.0083 7.75549C16.6263 8.28618 16.4353 9.30354 16.4353 10.8076C16.4353 12.2959 16.6263 13.3053 17.0083 13.836C17.3903 14.3667 18.123 14.6297 19.2066 14.625C20.2577 14.625 20.9782 14.3597 21.3681 13.829C21.7581 13.2983 21.953 12.2888 21.953 10.8005C21.953 9.29646 21.7581 8.2791 21.3681 7.74841C20.9782 7.21772 20.2577 6.95473 19.2066 6.95945Z" fill="black"/>
<path d="M51.3617 4.98882L51.529 6.69882C53.0902 5.33711 54.6186 4.65625 56.1142 4.65625C57.6961 4.65625 58.6922 5.30605 59.1027 6.60566C60.5674 5.30762 62.0488 4.65861 63.5468 4.65861C64.5821 4.65861 65.3706 4.93378 65.9124 5.48413C66.4542 6.03448 66.725 6.83405 66.725 7.88286V16.6298H63.8778V8.76498C63.862 8.16353 63.7504 7.73623 63.5432 7.48307C63.336 7.22991 62.9619 7.10333 62.4209 7.10333C61.9699 7.10034 61.524 7.19786 61.1159 7.38872C60.4739 7.71852 59.8552 8.09125 59.264 8.50435V16.6298H56.4702V8.76498C56.486 8.14781 56.3784 7.71539 56.1475 7.46774C55.9165 7.22008 55.5381 7.09743 55.0121 7.09979C54.5664 7.0999 54.1262 7.19732 53.7225 7.38518C53.0843 7.7061 52.4695 8.071 51.8825 8.47723V16.6298H48.9961V4.98882H51.3617Z" fill="black"/>
<path d="M75.9457 11.5181L72.1945 10.9674C71.3348 10.8408 70.702 10.544 70.2963 10.077C69.8906 9.61002 69.6873 8.90243 69.6865 7.95426C69.6865 6.62399 70.0053 5.77292 70.6427 5.40104C71.2802 5.02916 72.395 4.85895 73.9871 4.8904C75.5122 4.90928 77.0351 5.01282 78.5486 5.20056L78.4537 5.88928C76.622 5.79415 75.1647 5.73872 74.082 5.72299C72.7121 5.69154 71.7923 5.79847 71.3225 6.04377C70.8527 6.28906 70.6178 6.92629 70.6178 7.95544C70.6178 8.69998 70.7693 9.23028 71.0722 9.54633C71.3751 9.86239 71.8465 10.0684 72.4863 10.1643L76.2376 10.7103C77.1131 10.8526 77.7699 11.1573 78.2081 11.6243C78.6463 12.0913 78.8634 12.7765 78.8594 13.6798C78.8594 15.0258 78.509 15.8966 77.8083 16.292C77.1076 16.6875 75.9129 16.884 74.2243 16.8817C72.7957 16.8879 71.3684 16.7926 69.9535 16.5963L70.0495 15.9076C71.4194 16.0184 72.7809 16.066 74.1342 16.0503C75.6155 16.0345 76.6188 15.88 77.1439 15.5868C77.6691 15.2935 77.9305 14.6579 77.9281 13.6798C77.9281 12.9833 77.7569 12.4765 77.4144 12.1597C77.072 11.8429 76.5824 11.629 75.9457 11.5181Z" fill="black"/>
<path d="M84.0442 5.98367V14.1056C84.0442 15.3093 84.6576 15.9108 85.8842 15.91H87.8916L88.0102 16.5987C87.2844 16.726 86.5488 16.7895 85.8119 16.7886C83.9928 16.7886 83.0833 15.9257 83.0833 14.2V5.98367H81.0095V5.29495L83.088 5.19943V1.63672H84.043V5.17466H88.1525V5.98249L84.0442 5.98367Z" fill="black"/>
<path d="M97.4937 4.89062L97.3501 5.7928H96.8756C96.1205 5.79801 95.3753 5.96409 94.6903 6.27986C93.9658 6.60456 93.0211 7.13919 91.8561 7.88373V16.6272H90.9248V5.17602H91.6366L91.7553 7.19501C93.6993 5.65954 95.4527 4.89141 97.0156 4.89062H97.4937Z" fill="black"/>
<path d="M106.19 11.378H100.051C100.114 13.1195 100.48 14.3346 101.149 15.0233C101.818 15.712 102.902 16.0564 104.4 16.0564C105.719 16.0564 107.037 15.961 108.342 15.771L108.461 16.4361C107.505 16.7506 106.112 16.9078 104.28 16.9078C102.417 16.9078 101.079 16.4448 100.266 15.5186C99.4542 14.5925 99.0477 13.0369 99.0469 10.8521C99.0469 8.66718 99.4332 7.12739 100.206 6.23269C100.979 5.33798 102.273 4.89062 104.088 4.89062C107.13 4.89062 108.675 6.01451 108.723 8.26229C108.754 9.30716 108.567 10.0871 108.162 10.602C107.756 11.117 107.099 11.3757 106.19 11.378ZM100.051 10.595H106.046C107.225 10.595 107.79 9.8351 107.743 8.31535C107.729 7.42851 107.43 6.78028 106.847 6.37066C106.264 5.96105 105.36 5.75506 104.135 5.7527C102.638 5.7527 101.587 6.10886 100.982 6.82116C100.377 7.53347 100.066 8.79101 100.051 10.5938V10.595Z" fill="black"/>
<path d="M112.21 6.10488L112.115 5.39729C114.536 5.06472 116.368 4.89844 117.61 4.89844C119.871 4.89844 121.002 6.0066 121.002 8.22293V16.6303H120.29L120.118 14.5075C119.529 15.0775 118.738 15.5999 117.745 16.0748C116.82 16.5312 115.804 16.7732 114.771 16.7824C113.783 16.7824 113.015 16.5253 112.466 16.0111C111.917 15.4969 111.641 14.7677 111.637 13.8235V12.3989C111.637 11.5246 111.888 10.8516 112.39 10.3799C112.892 9.90817 113.597 9.6723 114.504 9.6723H120.047V8.21821C120.047 7.4265 119.856 6.81679 119.474 6.38909C119.092 5.96139 118.431 5.74754 117.491 5.74754C116.119 5.74833 114.359 5.86744 112.21 6.10488ZM112.615 12.4732V13.7551C112.615 15.1797 113.364 15.9003 114.861 15.9168C115.658 15.9325 116.549 15.7308 117.536 15.3118C118.458 14.9339 119.307 14.3995 120.044 13.7327V10.4306L114.603 10.4978C113.278 10.5143 112.616 11.1716 112.617 12.4696L112.615 12.4732Z" fill="black"/>
<path d="M125.991 5.17875L126.087 7.19773C127.855 5.66226 129.527 4.89453 131.104 4.89453C132.777 4.89453 133.749 5.6544 134.019 7.17415C135.787 5.6544 137.451 4.89453 139.013 4.89453C141.003 4.89453 141.999 5.9394 141.999 8.02915V16.6299H141.067V8.21784C141.052 6.57152 140.271 5.74835 138.727 5.74835C138.01 5.75259 137.305 5.92514 136.668 6.25192C135.999 6.58449 135.139 7.14663 134.088 7.93834V16.6299H133.157V8.21784C133.157 6.57152 132.376 5.74835 130.816 5.74835C130.106 5.7565 129.408 5.92891 128.777 6.25192C128.1 6.58449 127.236 7.14663 126.184 7.93834V16.6299H125.253V5.17875H125.991Z" fill="black"/>
<path fill-rule="evenodd" clip-rule="evenodd" d="M36.0867 0.765625V3.88255C31.518 4.38966 28.9353 8.91469 30.7765 13.2192L28.0562 14.6756C26.5744 11.5941 26.68 7.88633 28.5972 5.04772C29.4265 3.80598 30.5347 2.77279 31.8345 2.02967C33.1342 1.28655 34.5899 0.853821 36.0867 0.765625Z" fill="#00BDE8"/>
<path fill-rule="evenodd" clip-rule="evenodd" d="M37.3298 0.765625V3.88373C41.9566 4.40499 44.467 9.10574 42.602 13.2215L45.3306 14.7476C46.816 11.666 46.7104 7.88987 44.792 5.05125C43.1394 2.60771 40.4606 0.942522 37.3298 0.765625Z" fill="#7CA643"/>
<path fill-rule="evenodd" clip-rule="evenodd" d="M44.7518 15.6928L42.1015 14.1172C39.3005 17.8556 33.9595 17.7943 31.2546 14.0547L28.6055 15.6314C30.5547 18.5373 33.6985 20.0692 36.6324 19.9949C39.6517 20.1683 43.0506 18.4123 44.7518 15.6928Z" fill="#F26B21"/>
<path fill-rule="evenodd" clip-rule="evenodd" d="M40.7109 10.3642L37.4425 12.2582L34.1729 14.1521L34.1752 10.3618L34.1764 6.57031L37.4437 8.46783L40.7109 10.3642Z" fill="black"/>
</g>
<defs>
<clipPath id="clip0">
<rect width="142" height="20" fill="white"/>
</clipPath>
</defs>
</svg>
